<?xml version="1.0" encoding="utf-8"?>
<!-- Generator: Adobe Illustrator 16.0.0, SVG Export Plug-In . SVG Version: 6.00 Build 0)  -->
<!DOCTYPE svg PUBLIC "-//W3C//DTD SVG 1.1//EN" "http://www.w3.org/Graphics/SVG/1.1/DTD/svg11.dtd">
<svg version="1.1" id="Layer_1" xmlns="http://www.w3.org/2000/svg" xmlns:xlink="http://www.w3.org/1999/xlink" x="0px" y="0px"
	 width="500px" height="500px" viewBox="0 0 500 500" enable-background="new 0 0 500 500" xml:space="preserve">
<g id="Layer_1_copy_78">
	<g>
		<g>
			<rect x="125.909" y="60.919" fill="#359980" width="329.928" height="26.577"/>
			<path fill="#3C2517" d="M455.837,91.151H125.909c-2.018,0-3.652-1.638-3.652-3.655V60.919c0-2.02,1.635-3.655,3.652-3.655
				h329.928c2.013,0,3.647,1.635,3.647,3.655v26.577C459.484,89.513,457.85,91.151,455.837,91.151z M129.565,83.839H452.18V64.571
				H129.565V83.839z"/>
		</g>
		<g>
			<g>
				<path fill="#3C2517" d="M212.584,303.284c-0.296,0-0.6-0.038-0.899-0.11c-1.953-0.496-3.145-2.48-2.648-4.438
					c0.326-1.312,31.994-131.881-53.127-208.074c-1.504-1.349-1.632-3.662-0.287-5.163c1.351-1.505,3.662-1.628,5.166-0.286
					c88.446,79.17,55.674,213.959,55.336,215.309C215.704,302.178,214.214,303.284,212.584,303.284z"/>
			</g>
			<g>
				<path fill="#3C2517" d="M373.754,304.439c-1.647,0-3.143-1.119-3.552-2.785c-0.326-1.353-31.892-135.877,56.543-215.037
					c1.505-1.347,3.814-1.215,5.16,0.286c1.346,1.504,1.223,3.814-0.286,5.161c-85.135,76.206-54.636,206.547-54.315,207.856
					c0.481,1.96-0.728,3.936-2.686,4.413C374.327,304.407,374.041,304.439,373.754,304.439z"/>
			</g>
			<g>
				<path fill="#3C2517" d="M187.734,125.957c-1.141,0-2.262-0.534-2.975-1.529c-1.173-1.631-0.804-3.906,0.822-5.091
					c0.227-0.165,11.915-9.096,15.886-32.402c0.336-1.99,2.222-3.335,4.216-2.987c1.99,0.34,3.324,2.223,2.989,4.216
					c-4.535,26.599-18.23,36.687-18.812,37.104C189.215,125.732,188.466,125.957,187.734,125.957z"/>
			</g>
			<g>
				<path fill="#3C2517" d="M205.888,161.738c-1.281,0-2.529-0.682-3.201-1.883c-0.974-1.765-0.342-3.984,1.421-4.963l0,0
					c0.312-0.175,31.176-17.973,42.756-67.879c0.454-1.964,2.416-3.187,4.388-2.73c1.962,0.454,3.189,2.416,2.73,4.381
					c-12.356,53.259-44.945,71.853-46.327,72.618C207.097,161.59,206.487,161.738,205.888,161.738z"/>
			</g>
			<g>
				<path fill="#3C2517" d="M211.431,191.49c-1.463,0-2.84-0.883-3.408-2.326c-0.731-1.875,0.191-4,2.067-4.738
					c0.777-0.302,77.62-31.224,81.762-97.105c0.121-2.015,1.834-3.555,3.873-3.418c2.014,0.123,3.543,1.862,3.416,3.875
					c-1.834,29.287-17.404,56.489-45.014,78.659c-20.674,16.597-40.535,24.472-41.371,24.797
					C212.316,191.408,211.871,191.49,211.431,191.49z"/>
			</g>
			<g>
				<path fill="#3C2517" d="M216.913,218.065c-1.618,0-3.099-1.085-3.529-2.719c-0.522-1.954,0.648-3.95,2.598-4.473
					c1.059-0.277,106.223-29.188,121.259-123.897c0.317-1.993,2.181-3.349,4.184-3.035c1.994,0.315,3.353,2.188,3.039,4.184
					c-15.794,99.458-125.51,129.527-126.614,129.814C217.531,218.031,217.222,218.065,216.913,218.065z"/>
			</g>
			<g>
				<path fill="#3C2517" d="M218.357,260.234c-1.485,0-2.875-0.906-3.421-2.377c-0.709-1.89,0.256-3.994,2.145-4.699
					c1.24-0.465,124.706-47.699,170.92-166.641c0.73-1.885,2.847-2.824,4.732-2.085c1.883,0.733,2.812,2.85,2.081,4.731
					C347.39,211.23,220.906,259.531,219.633,260.007C219.211,260.163,218.784,260.234,218.357,260.234z"/>
			</g>
			<g>
				<path fill="#3C2517" d="M213.447,299.529c-1.494,0-2.89-0.922-3.436-2.397c-0.689-1.896,0.282-3.995,2.177-4.688
					c1.222-0.447,122.821-45.41,156.139-96.366c1.105-1.69,3.369-2.163,5.063-1.059c1.688,1.106,2.158,3.371,1.054,5.058
					c-14.613,22.349-45.99,45.857-93.265,69.872c-34.98,17.772-66.171,29.247-66.479,29.356
					C214.287,299.454,213.864,299.529,213.447,299.529z"/>
			</g>
			<g>
				<path fill="#3C2517" d="M290.291,305.021c-0.495,0-0.986-0.102-1.443-0.299c-2.322-1-57.071-24.68-73.792-39.634
					c-1.503-1.351-1.635-3.657-0.286-5.164c1.349-1.5,3.662-1.633,5.16-0.284c14.569,13.034,62.6,34.338,70.662,37.869
					c7.551-2.043,49.652-14.27,73.988-38.855c1.421-1.441,3.733-1.446,5.165-0.031c1.435,1.419,1.448,3.73,0.025,5.167
					c-28.128,28.428-76.554,40.621-78.603,41.122C290.881,304.982,290.587,305.021,290.291,305.021z"/>
			</g>
			<g>
				<path fill="#3C2517" d="M372.628,300.686c-0.445,0-0.895-0.082-1.331-0.252c-5.378-2.107-132.033-52.092-159.513-96.526
					c-1.059-1.717-0.537-3.968,1.181-5.031c1.723-1.056,3.971-0.527,5.034,1.188c26.21,42.379,154.666,93.055,155.965,93.562
					c1.876,0.733,2.809,2.854,2.066,4.733C375.467,299.805,374.086,300.686,372.628,300.686z"/>
			</g>
			<g>
				<path fill="#3C2517" d="M367.699,261.195c-0.485,0-0.979-0.098-1.449-0.307c-1.376-0.596-137.961-60.913-180.2-172.04
					c-0.713-1.885,0.232-4,2.12-4.715c1.887-0.72,3.993,0.231,4.712,2.119c41.158,108.275,174.927,167.351,176.271,167.933
					c1.853,0.804,2.703,2.955,1.896,4.811C370.457,260.371,369.112,261.195,367.699,261.195z"/>
			</g>
			<g>
				<path fill="#3C2517" d="M367.177,220.675c-0.354,0-0.713-0.05-1.066-0.157c-59.868-18.234-92.167-53.256-108.716-79.422
					c-17.981-28.433-21.702-52.293-21.849-53.294c-0.295-1.992,1.078-3.853,3.072-4.15c1.972-0.313,3.852,1.072,4.157,3.067
					c0.14,0.928,15.323,93.261,125.464,126.809c1.931,0.586,3.021,2.628,2.431,4.558
					C370.188,219.662,368.744,220.675,367.177,220.675z"/>
			</g>
			<g>
				<path fill="#3C2517" d="M373.782,191.199c-0.459,0-0.933-0.088-1.381-0.275c-84.919-34.879-90.197-100.642-90.378-103.422
					c-0.133-2.014,1.39-3.754,3.406-3.89c1.994-0.148,3.752,1.392,3.889,3.402c0.054,0.768,5.43,64.114,85.857,97.148
					c1.861,0.765,2.757,2.9,1.989,4.765C376.589,190.346,375.222,191.199,373.782,191.199z"/>
			</g>
			<g>
				<path fill="#3C2517" d="M380.854,164.897c-0.525,0-1.062-0.116-1.575-0.359c-16.815-8.052-31.273-23.767-41.793-45.459
					c-7.864-16.217-10.779-29.916-10.902-30.493c-0.408-1.974,0.854-3.911,2.83-4.325c1.979-0.406,3.911,0.854,4.324,2.828
					c0.112,0.529,11.534,53.062,48.698,70.855c1.82,0.872,2.589,3.05,1.718,4.877C383.526,164.131,382.218,164.897,380.854,164.897z
					"/>
			</g>
			<g>
				<path fill="#3C2517" d="M399.784,126.743c-0.522,0-1.053-0.113-1.559-0.35c-16.005-7.534-24.958-35.978-25.336-37.184
					c-0.595-1.931,0.487-3.973,2.412-4.572c1.94-0.595,3.977,0.483,4.57,2.41c2.29,7.368,10.603,27.62,21.47,32.732
					c1.826,0.858,2.612,3.037,1.748,4.863C402.469,125.964,401.152,126.743,399.784,126.743z"/>
			</g>
		</g>
		<g>
			<path fill="#F89521" d="M351,315.027c0,75.984-61.6,137.581-137.586,137.581c-75.984,0-137.588-61.597-137.588-137.581
				s61.604-137.578,137.588-137.578C289.4,177.449,351,239.042,351,315.027z"/>
			<path fill="#28140F" d="M213.414,456.264c-77.879,0-141.241-63.356-141.241-141.236c0-77.878,63.362-141.233,141.241-141.233
				c77.886,0,141.243,63.355,141.243,141.233C354.657,392.907,291.3,456.264,213.414,456.264z M213.414,181.101
				c-73.85,0-133.931,60.077-133.931,133.926c0,73.847,60.081,133.932,133.931,133.932c73.854,0,133.934-60.085,133.934-133.932
				C347.348,241.178,287.268,181.101,213.414,181.101z"/>
		</g>
		<g>
			<g>
				<path fill="#28140F" d="M164.896,444.975l-3.054-6.646c63.466-29.11,100.803-79.21,110.973-148.924
					c7.623-52.289-3.76-96.601-3.873-97.044l7.068-1.855c0.485,1.849,11.852,45.984,4.074,99.708
					C272.869,340.016,247.027,407.298,164.896,444.975z"/>
			</g>
			<g>
				<path fill="#28140F" d="M329.604,389.677C196.188,367.165,99.516,240.66,98.558,239.388l5.838-4.401
					c0.943,1.253,95.918,125.457,226.427,147.481L329.604,389.677z"/>
			</g>
			<g>
				<path fill="#28140F" d="M248.202,452.516l-4.608-5.674c24.676-20.064,9.36-46.018,8.698-47.111l-0.328-0.695
					c-0.05-0.113-8.277-18.965-65.073-21.991c-0.318,0-0.641,0.005-0.959,0.005c-67.159,0-107.944-31.488-109.652-32.834
					l4.517-5.747c0.399,0.316,40.646,31.271,105.381,31.271c0.3,0,0.59,0,0.89,0c59.36,3.152,70.15,22.842,71.652,26.517
					C260.688,399.753,276.27,429.694,248.202,452.516z"/>
			</g>
			<g>
				<path fill="#28140F" d="M272.843,330.527c-6.933,0-14.31-0.752-22.102-2.256c-16.485-3.648-28.76-16.711-35.596-37.799
					c-4.71-14.533-5.31-27.974-5.374-30.029c-0.596-3.809-9.416-58.415-30.018-74.896l4.565-5.708
					c23.481,18.788,32.345,77.264,32.712,79.745l0.042,0.452c0.008,0.533,1.594,53.652,35.151,61.072
					c24.656,4.762,44.582,1.443,59.104-9.875c22.772-17.731,24.831-49.614,24.849-49.937l7.295,0.403
					c-0.075,1.438-2.206,35.439-27.597,55.262C304.31,325.993,289.896,330.527,272.843,330.527z"/>
			</g>
		</g>
	</g>
</g>
</svg>
